<?xml version="1.0" standalone="no"?>
<!DOCTYPE svg PUBLIC "-//W3C//DTD SVG 20010904//EN"
 "http://www.w3.org/TR/2001/REC-SVG-20010904/DTD/svg10.dtd">
<svg version="1.0" xmlns="http://www.w3.org/2000/svg"
 width="1000.000000pt" height="1000.000000pt" viewBox="0 0 1000.000000 1000.000000"
 preserveAspectRatio="xMidYMid meet">
<metadata>
Created by potrace 1.11, written by Peter Selinger 2001-2013
</metadata>
<g transform="translate(0.000000,1000.000000) scale(0.100000,-0.100000)"
fill="#000000" stroke="none">
<path d="M4898 9444 c-2 -1 -48 -5 -103 -9 -55 -3 -113 -8 -130 -10 -16 -2
-52 -7 -80 -10 -66 -8 -114 -15 -145 -21 -14 -2 -45 -6 -70 -10 -25 -3 -101
-17 -170 -31 -525 -106 -1017 -300 -1485 -586 -125 -77 -395 -269 -482 -343
-12 -11 -43 -37 -69 -59 -115 -96 -332 -306 -445 -430 -68 -75 -190 -222 -240
-290 -24 -33 -50 -66 -56 -73 -16 -17 -198 -290 -244 -367 -193 -319 -340
-650 -474 -1065 -24 -76 -79 -290 -90 -352 -3 -17 -8 -34 -10 -38 -6 -10 -63
-355 -70 -430 -4 -36 -9 -73 -11 -84 -16 -86 -23 -541 -11 -746 20 -332 57
-522 142 -732 135 -329 332 -557 565 -651 53 -22 144 -48 250 -72 117 -27 394
-119 580 -192 184 -73 435 -198 615 -306 122 -73 177 -109 333 -219 88 -62
341 -264 428 -343 23 -21 251 -235 299 -282 78 -74 154 -143 219 -198 32 -27
64 -55 70 -60 40 -37 217 -170 319 -239 357 -243 706 -399 1122 -502 77 -19
167 -39 200 -45 82 -14 183 -29 225 -34 19 -2 51 -6 70 -9 238 -31 608 -36
810 -10 25 3 56 7 70 9 141 15 369 74 530 137 270 105 550 272 776 464 370
315 672 705 913 1179 65 129 69 141 56 161 -24 37 -67 20 -115 -43 -56 -74
-115 -139 -249 -274 -252 -251 -514 -437 -837 -595 -83 -41 -158 -74 -166 -74
-8 0 -18 -4 -23 -9 -6 -6 -78 -32 -160 -60 -174 -58 -319 -94 -470 -117 -16
-3 -52 -9 -80 -14 -169 -32 -671 -34 -830 -4 -11 2 -40 7 -65 10 -70 9 -265
52 -379 85 -433 124 -903 383 -1256 692 -509 447 -893 1027 -1115 1687 -24 69
-46 139 -50 155 -4 17 -17 64 -28 105 -47 172 -95 436 -117 645 -30 287 -23
700 16 960 6 39 13 84 15 100 27 181 86 422 151 613 79 236 185 473 303 677
53 93 134 222 162 260 4 6 41 56 82 111 491 662 1235 1121 2010 1240 21 3 47
7 57 9 18 4 100 12 189 20 54 5 370 5 420 1 19 -2 71 -7 114 -11 43 -3 86 -8
95 -10 9 -1 38 -6 64 -9 27 -4 59 -10 70 -12 35 -7 120 -25 147 -30 132 -27
351 -97 535 -172 56 -23 321 -156 376 -188 65 -39 107 -24 114 41 2 18 -21 44
-86 95 -35 28 -71 56 -79 63 -189 153 -519 357 -794 492 -369 180 -819 328
-1186 390 -19 3 -42 8 -50 10 -8 2 -36 7 -62 10 -26 3 -78 9 -115 15 -38 5
-98 12 -134 15 -36 4 -86 9 -110 11 -48 6 -567 13 -571 8z m-2943 -3915 c329
-72 622 -304 779 -618 37 -74 90 -217 101 -271 3 -19 8 -45 11 -56 26 -129 26
-327 1 -455 -68 -339 -277 -636 -562 -794 -76 -42 -180 -79 -281 -100 -78 -16
-214 -31 -204 -22 3 2 34 17 70 32 269 117 485 364 584 669 15 43 28 90 31
103 2 13 9 51 15 85 21 115 19 321 -5 443 -94 476 -475 875 -900 941 -22 3
-47 8 -55 9 -8 2 -28 4 -44 4 -45 1 -27 9 70 31 111 24 276 24 389 -1z m-275
-751 c57 -17 122 -58 172 -109 181 -184 188 -493 15 -672 -83 -86 -156 -116
-280 -113 -67 1 -92 7 -137 29 -96 47 -169 127 -213 233 -32 78 -39 106 -43
189 -7 132 42 263 129 349 99 98 231 133 357 94z"/>
<path d="M6415 7729 c-16 -6 -86 -28 -155 -51 -69 -22 -138 -46 -155 -53 -16
-8 -59 -26 -95 -40 -180 -74 -429 -214 -615 -346 -754 -538 -1238 -1350 -1360
-2279 -27 -205 -27 -590 1 -800 24 -184 39 -272 68 -385 32 -127 81 -291 110
-372 25 -67 96 -180 155 -245 136 -149 336 -251 536 -274 75 -9 91 -8 191 1
l81 7 8 -38 c5 -22 10 -47 12 -58 6 -35 57 -151 87 -201 133 -222 387 -372
636 -377 68 -2 161 5 217 16 37 8 62 25 76 54 14 28 13 42 -33 314 -7 37 -13
78 -15 90 -9 62 -16 112 -33 215 -27 167 -15 185 136 198 78 7 81 7 106 -18
14 -14 27 -35 27 -47 1 -11 2 -23 3 -27 2 -7 6 -34 21 -133 2 -14 16 -99 30
-190 28 -175 30 -187 41 -265 8 -61 27 -101 56 -116 26 -14 135 -5 184 16 58
24 61 51 29 255 -2 14 -9 63 -15 110 -7 47 -13 96 -15 110 -5 33 -12 84 -20
145 -4 28 -10 70 -14 95 -9 56 3 106 29 120 12 6 37 13 58 16 20 2 54 7 76 10
74 11 111 -21 121 -105 3 -23 7 -55 10 -70 19 -115 35 -212 39 -244 52 -348
59 -374 110 -385 17 -3 33 -6 36 -5 3 1 31 4 64 7 91 10 134 51 121 116 -3 13
-7 42 -10 65 -3 22 -10 65 -15 95 -17 101 -23 135 -35 220 -4 25 -9 59 -12 75
-20 118 -28 182 -27 218 0 53 29 73 123 84 131 17 144 6 167 -139 8 -51 17
-104 19 -118 3 -14 7 -50 11 -80 3 -30 8 -58 10 -61 3 -6 28 -163 40 -254 16
-120 48 -160 118 -149 105 15 209 99 241 194 17 50 17 153 2 225 -3 11 -8 43
-11 70 -4 28 -9 57 -11 65 -2 8 -6 38 -10 65 -3 28 -8 57 -10 65 -2 8 -6 38
-10 65 -3 28 -8 59 -10 70 -2 11 -7 40 -10 65 -3 25 -7 54 -9 65 -2 11 -7 43
-10 70 -7 54 -24 164 -31 205 -3 14 -7 52 -11 85 l-5 60 58 60 c205 210 355
490 419 780 9 38 33 190 39 245 7 63 8 303 1 370 -3 25 -8 72 -11 105 -48 458
-273 1007 -565 1379 -117 148 -287 325 -420 437 -36 29 -67 56 -70 59 -10 10
-115 87 -180 132 -105 73 -216 137 -360 209 -111 55 -313 141 -322 138 -2 0
-16 -5 -33 -10z m1058 -1700 c259 -61 466 -302 537 -624 27 -126 23 -326 -9
-440 -67 -232 -224 -410 -416 -472 -67 -21 -236 -26 -302 -9 -227 60 -414 248
-502 503 -42 124 -55 207 -53 348 6 459 357 786 745 694z m-1720 -261 c299
-80 527 -350 572 -678 7 -48 7 -202 1 -220 -3 -8 -7 -31 -10 -50 -24 -163
-141 -357 -281 -466 -290 -226 -672 -207 -953 47 -104 95 -209 280 -237 420
-21 102 -25 237 -10 319 4 19 9 45 11 58 21 114 120 292 208 376 114 107 261
185 396 209 60 11 238 2 303 -15z m934 -1403 c12 -3 73 -63 135 -133 62 -70
117 -132 123 -138 5 -6 38 -42 71 -80 34 -38 78 -87 97 -109 43 -48 52 -86 32
-125 -18 -35 -41 -49 -94 -56 -125 -18 -185 -3 -233 57 -40 50 -88 65 -134 43
-24 -12 -41 -33 -66 -82 -38 -78 -56 -89 -154 -97 -38 -4 -74 -8 -81 -10 -21
-7 -77 39 -86 71 -10 34 2 64 117 307 31 65 56 120 56 122 0 10 96 202 106
213 7 7 23 16 36 21 23 9 31 9 75 -4z"/>
<path d="M7245 5730 c-3 -5 -10 -36 -15 -67 -31 -191 -133 -346 -287 -435 -80
-47 -83 -89 -8 -102 17 -3 44 -7 60 -10 173 -30 335 -153 424 -323 6 -13 20
-23 31 -23 22 0 50 36 50 64 0 42 34 154 68 221 42 83 140 186 225 234 50 29
58 37 55 59 -3 29 -6 31 -129 57 -155 33 -275 115 -364 251 -44 67 -61 84 -80
84 -13 0 -27 -4 -30 -10z"/>
<path d="M5462 5488 c-5 -7 -13 -33 -16 -58 -11 -75 -48 -182 -85 -245 -43
-75 -143 -175 -215 -215 -65 -37 -79 -52 -74 -82 3 -20 12 -24 73 -35 128 -24
211 -59 300 -127 56 -43 88 -80 146 -166 28 -41 59 -78 69 -82 26 -10 47 19
53 73 8 70 53 194 91 254 46 70 117 140 207 201 58 39 74 55 74 74 0 26 5 24
-130 54 -94 22 -199 74 -263 131 -58 52 -152 170 -152 191 0 14 -38 44 -56 44
-6 0 -16 -6 -22 -12z"/>
<path d="M8351 7397 c-50 -25 -45 -45 49 -188 259 -396 453 -819 570 -1244 38
-140 82 -331 95 -415 4 -25 9 -54 11 -65 2 -11 6 -38 9 -60 4 -22 8 -49 9 -60
2 -11 7 -49 11 -85 3 -36 8 -78 11 -95 22 -157 23 -775 0 -846 -3 -8 -7 -45
-10 -84 -3 -38 -8 -79 -10 -90 -2 -11 -7 -42 -10 -70 -23 -170 -100 -495 -159
-670 -27 -80 -23 -114 15 -133 49 -23 68 -5 140 134 152 294 290 692 332 954
3 19 7 44 10 55 6 28 24 158 33 230 10 82 10 532 0 625 -13 131 -37 284 -58
375 -121 529 -324 957 -649 1370 -110 139 -337 375 -361 375 -8 0 -25 -6 -38
-13z"/>
</g>
</svg>
