<?xml version="1.0" encoding="UTF-8"?>
<svg width="136px" height="135px" viewBox="0 0 136 135" version="1.1" xmlns="http://www.w3.org/2000/svg" xmlns:xlink="http://www.w3.org/1999/xlink">
    <!-- Generator: Sketch 53.2 (72643) - https://sketchapp.com -->
    <title>NetherWebsite_SkullLogo</title>
    <desc>Created with Sketch.</desc>
    <g id="Page-1" stroke="none" stroke-width="1" fill="none" fill-rule="evenodd">
        <g id="NetherWebsite_SkullLogo" fill="#5CD6B8" fill-rule="nonzero">
            <path d="M119.75,31.24 C119.381475,31.0130264 118.90876,31.0488951 118.578702,31.3288759 C118.248643,31.6088568 118.136164,32.0693932 118.3,32.47 C130.486724,49.8050452 133.733078,71.8913825 127.05,92 C127.010284,92.4293976 127.250305,92.835891 127.645484,93.0084979 C128.040663,93.1811049 128.501981,93.0809433 128.79,92.76 C140.502509,72.6770372 136.767541,47.163053 119.79,31.28 L119.75,31.24 Z" id="Path"></path>
            <path d="M70.74,99.13 L70.74,99.38 C71.1900533,102.485372 72.8563986,105.284358 75.3718182,107.160137 C77.8872377,109.035916 81.045281,109.834535 84.15,109.38 L85.35,109.21 C86.1228917,109.091655 86.6574289,108.374484 86.55,107.6 L85.08,97.6 C85.0289918,97.2243932 85.130274,96.8439831 85.3612968,96.5434657 C85.5923196,96.2429482 85.9339046,96.0472709 86.31,96 L87.78,95.79 C88.5578479,95.6829246 89.2765378,96.2230581 89.39,97 L90.86,107 C90.9732816,107.775922 91.694058,108.313147 92.47,108.2 L93.93,107.98 C94.7059224,107.866718 95.243147,107.145942 95.13,106.37 L93.66,96.37 C93.546853,95.594058 94.0840776,94.8732816 94.86,94.76 L96.32,94.54 C97.095942,94.426853 97.8167184,94.9640776 97.93,95.74 L99.4,105.74 C99.5132816,106.515922 100.234058,107.053147 101.01,106.94 L102.47,106.73 C103.242892,106.611655 103.777429,105.894484 103.67,105.12 L102.2,95.12 C102.092571,94.3455156 102.627108,93.6283448 103.4,93.51 L104.86,93.3 C105.231535,93.2427401 105.610553,93.3362144 105.912861,93.559659 C106.215168,93.7831035 106.415732,94.1180159 106.47,94.49 L107.94,104.49 C108.038761,105.232242 108.704076,105.765375 109.45,105.7 C110.623019,105.550998 111.687428,104.938202 112.405285,103.998598 C113.123143,103.058994 113.434588,101.870934 113.27,100.7 L111,85.08 C117.13,79.14 120.19,71.08 118.6,60.24 C116.22,44.09 104.89,31.39 90.11,26.06 C65.6979066,32.6447992 50.0743134,56.4540208 53.75,81.47 C54.2179368,84.7172152 55.0085147,87.9096761 56.11,91 C58.116719,96.3996641 63.4808765,99.7957363 69.22,99.3 L70.74,99.13 Z M102.17,51.57 C107.53,50.78 112.66,55.45 113.62,61.99 C114.58,68.53 111.01,74.48 105.62,75.27 C100.23,76.06 95.16,71.39 94.19,64.85 C93.22,58.31 96.8,52.36 102.17,51.57 L102.17,51.57 Z M94,77.25 L100.2,84.16 C100.550546,84.5545922 100.657123,85.109344 100.477752,85.6057425 C100.298382,86.102141 99.8618099,86.4606288 99.34,86.54 L97.63,86.79 C97.0202121,86.8604061 96.4137451,86.633446 96,86.18 L95.23,85.32 C94.8980836,84.9557128 94.4066141,84.7805385 93.9191127,84.8527609 C93.4316114,84.9249833 93.0120407,85.2351266 92.8,85.68 L92.31,86.68 C92.0380637,87.2524044 91.4973538,87.650427 90.87,87.74 L89.14,88 C88.625523,88.0705806 88.1132177,87.8567066 87.8016402,87.4412699 C87.4900626,87.0258332 87.4281891,86.4741354 87.64,86 L91.64,77.6 C91.8601203,77.1834846 92.2653866,76.8966452 92.7313928,76.8275341 C93.1973989,76.7584231 93.6684702,76.9152971 94,77.25 L94,77.25 Z M75.13,55.54 C79.9448718,54.5896937 84.8531465,56.6670981 87.5228341,60.7852094 C90.1925218,64.9033207 90.0854902,70.232046 87.2525915,74.2396335 C84.4196929,78.2472211 79.431958,80.1258564 74.6591296,78.9829737 C69.8863011,77.8400909 66.2904439,73.9060624 65.58,69.05 C64.62,62.51 68.9,56.46 75.13,55.54 Z" id="Shape"></path>
            <path d="M69.71,69.44 C73.1581135,69.6235434 76.228736,71.6808605 77.71,74.8 C77.8519842,75.0533967 78.1410727,75.1864454 78.4258961,75.1294807 C78.7107196,75.072516 78.9263979,74.8385139 78.96,74.55 C79.1435434,71.1018865 81.2008605,68.031264 84.32,66.55 C84.5379675,66.385824 84.6345886,66.105859 84.5642776,65.8421926 C84.4939666,65.5785263 84.2707731,65.3838452 84,65.35 C80.555454,65.155782 77.4897795,63.10178 76,59.99 C75.8593519,59.7371646 75.5722961,59.603171 75.2881631,59.6577245 C75.0040301,59.712278 74.7870101,59.9430542 74.75,60.23 C74.5600336,63.6759691 72.5047133,66.7436113 69.39,68.23 C69.1646067,68.3922099 69.0626373,68.6766479 69.1336363,68.9451127 C69.2046352,69.2135776 69.4338854,69.4104203 69.71,69.44 Z" id="Path"></path>
            <path d="M97.1,65.36 C100.358497,65.562944 103.251562,67.5146146 104.66,70.46 C104.797167,70.6986603 105.071575,70.8228777 105.341411,70.7684569 C105.611248,70.714036 105.81606,70.4931692 105.85,70.22 C106.052944,66.9615025 108.004615,64.0684378 110.95,62.66 C111.18866,62.5228335 111.312878,62.2484251 111.258457,61.9785885 C111.204036,61.708752 110.983169,61.5039404 110.71,61.47 C107.453707,61.2689896 104.561173,59.3215027 103.15,56.38 C103.023018,56.1286297 102.744629,55.9920681 102.468124,56.0455104 C102.191618,56.0989526 101.984167,56.329416 101.96,56.61 C101.771635,59.8705693 99.8202221,62.7689351 96.87,64.17 C96.6186297,64.2969819 96.4820681,64.5753705 96.5355104,64.8518761 C96.5889526,65.1283818 96.819416,65.3358328 97.1,65.36 L97.1,65.36 Z" id="Path"></path>
            <path d="M128.9,104.4 C121.508678,114.043505 110.678576,120.459883 98.67,122.31 C71.23,126.31 45.35,104.82 40.85,74.24 C36.35,43.66 55,15.6 82.39,11.57 C93.1923625,10.0239726 104.194749,12.3171687 113.48,18.05 C113.884883,18.2147809 114.349813,18.0719078 114.59229,17.708193 C114.834766,17.3444783 114.78783,16.8603613 114.48,16.55 C99.0467771,3.66118878 78.7763961,-1.88899116 58.93,1.34 C21.42,7.42 -4.09,43.23 1.42,80.83 C1.86,83.83 4.93,94.67 13.02,96.61 C24.6365388,99.2117985 35.3921947,104.748 44.26,112.69 C52.06,119.4 63.2,134.23 90.58,134.23 C112.1,134.23 125.06,116.8 130.25,105.23 C130.410244,104.864334 130.276365,104.436498 129.936265,104.2274 C129.596166,104.018301 129.153964,104.091954 128.9,104.4 Z M10.76,77.86 C10.44,74.02 12.84,70.68 16.11,70.41 C19.38,70.14 22.29,73.04 22.61,76.88 C22.93,80.72 20.53,84.06 17.26,84.33 C13.99,84.6 11.08,81.7 10.76,77.86 Z M22.24,94.15 C21.4285047,94.2628071 20.6088763,94.3062976 19.79,94.28 C27.16,91.88 31.89,83.83 30.61,75.12 C29.33,66.41 22.48,60.06 14.74,59.88 C15.5155661,59.6199253 16.311736,59.4259007 17.12,59.3 C25.83,58.02 34.43,64.66 35.85,74.3 C37.27,83.94 31,92.87 22.24,94.15 Z" id="Shape"></path>
        </g>
    </g>
</svg>