<?xml version="1.0" encoding="UTF-8"?>
<svg width="1000px" height="1000px" viewBox="0 0 1000 1000" version="1.1" xmlns="http://www.w3.org/2000/svg" xmlns:xlink="http://www.w3.org/1999/xlink">
    <!-- Generator: Sketch 52.6 (67491) - http://www.bohemiancoding.com/sketch -->
    <title>logo-dark</title>
    <desc>Created with Sketch.</desc>
    <g id="logo-dark" stroke="none" stroke-width="1" fill="none" fill-rule="evenodd">
        <g id="NetherSkull" transform="translate(50.000000, 55.000000)" fill="#FFFFFF">
            <g id="Group" transform="translate(350.142857, 171.142857)">
                <path d="M441.857143,34.7142857 C436.714286,29.5714286 427.714286,37.2857143 432.857143,42.4285714 C471.428571,97.7142857 498.428571,162 508.714286,232.714286 C519,303.428571 512.571429,372.857143 490.714286,437.142857 C488.142857,444.857143 498.428571,448.714286 502.285714,442.285714 C538.285714,378 555,303.428571 543.428571,227.571429 C531.857143,151.714286 495.857143,84.8571429 441.857143,34.7142857 Z" id="Path"></path>
                <g>
                    <path d="M117.857143,484.714286 L117.857143,486 C124.285714,528.428571 164.142857,558 206.571429,551.571429 L214.285714,550.285714 C219.428571,549 223.285714,545.142857 222,540 L211.714286,474.428571 C210.428571,469.285714 214.285714,464.142857 219.428571,464.142857 L229.714286,462.857143 C234.857143,461.571429 240,465.428571 240,470.571429 L250.285714,536.142857 C251.571429,541.285714 255.428571,545.142857 260.571429,543.857143 L270.857143,542.571429 C276,541.285714 279.857143,537.428571 278.571429,532.285714 L269.571429,466.714286 C268.285714,461.571429 272.142857,456.428571 277.285714,456.428571 L287.571429,455.142857 C292.714286,453.857143 297.857143,457.714286 297.857143,462.857143 L308.142857,528.428571 C309.428571,533.571429 313.285714,537.428571 318.428571,536.142857 L328.714286,534.857143 C333.857143,533.571429 337.714286,529.714286 336.428571,524.571429 L326.142857,459 C324.857143,453.857143 328.714286,448.714286 333.857143,448.714286 L344.142857,447.428571 C349.285714,446.142857 354.428571,450 354.428571,455.142857 L364.714286,520.714286 C366,525.857143 369.857143,529.714286 375,528.428571 C391.714286,525.857143 403.285714,511.714286 400.714286,495 L385.285714,392.142857 C426.428571,352.285714 445.714286,299.571429 435.428571,227.571429 C418.714286,119.571429 344.142857,36 245.142857,2.84217094e-14 C85.7142857,42.4285714 -21,199.285714 4.71428571,367.714286 C7.28571429,389.571429 13.7142857,410.142857 20.1428571,430.714286 C33,466.714286 69,488.571429 107.571429,486 C110.142857,484.714286 114,484.714286 117.857143,484.714286 Z M326.142857,169.714286 C362.142857,164.571429 395.571429,195.428571 402,239.142857 C408.428571,282.857143 385.285714,321.428571 349.285714,326.571429 C313.285714,331.714286 279.857143,300.857143 273.428571,257.142857 C267,213.428571 290.142857,174.857143 326.142857,169.714286 Z M272.142857,339.428571 L313.285714,385.714286 C318.428571,390.857143 314.571429,399.857143 308.142857,401.142857 L295.285714,402.428571 C291.428571,402.428571 287.571429,401.142857 283.714286,398.571429 L279.857143,393.428571 C274.714286,388.285714 267,389.571429 263.142857,396 L260.571429,402.428571 C259.285714,406.285714 255.428571,408.857143 251.571429,408.857143 L240,410.142857 C232.285714,411.428571 227.142857,403.714286 229.714286,397.285714 L255.428571,342 C258,335.571429 267,334.285714 272.142857,339.428571 Z M146.142857,195.428571 C187.285714,189 225.857143,219.857143 232.285714,263.571429 C238.714286,307.285714 210.428571,347.142857 169.285714,353.571429 C128.142857,360 89.5714286,329.142857 83.1428571,285.428571 C76.7142857,241.714286 105,201.857143 146.142857,195.428571 Z" id="Shape" fill-rule="nonzero"></path>
                    <path d="M110.142857,288 C134.571429,290.571429 151.285714,302.142857 162.857143,324 C165.428571,327.857143 170.571429,326.571429 170.571429,322.714286 C173.142857,298.285714 184.714286,281.571429 206.571429,270 C210.428571,267.428571 209.142857,262.285714 205.285714,262.285714 C180.857143,259.714286 164.142857,248.142857 152.571429,226.285714 C150,222.428571 144.857143,223.714286 144.857143,227.571429 C142.285714,252 130.714286,268.714286 108.857143,280.285714 C105,281.571429 106.285714,288 110.142857,288 Z" id="Path"></path>
                    <path d="M291.428571,261 C314.571429,263.571429 331.285714,273.857143 341.571429,294.428571 C342.857143,298.285714 349.285714,297 349.285714,293.142857 C351.857143,270 362.142857,253.285714 382.714286,243 C386.571429,241.714286 385.285714,235.285714 381.428571,235.285714 C358.285714,232.714286 341.571429,222.428571 331.285714,201.857143 C330,198 323.571429,199.285714 323.571429,203.142857 C321,226.285714 310.714286,243 290.142857,253.285714 C286.285714,254.571429 287.571429,261 291.428571,261 Z" id="Path"></path>
                </g>
            </g>
            <path d="M852.428571,690.571429 C803.571429,753.571429 732.857143,797.285714 651.857143,808.857143 C470.571429,835.857143 298.285714,693.142857 268.714286,490 C239.142857,286.857143 362.571429,101.714286 543.857143,74.7142857 C617.142857,64.4285714 689.142857,81.1428571 749.571429,117.142857 C756,121 762.428571,112 756,106.857143 C657,24.5714286 524.571429,-16.5714286 387,6.57142857 C138.857143,46.4285714 -30.8571429,284.285714 5.14285714,533.714286 C7.71428571,553 28.2857143,625 82.2857143,637.857143 C174.857143,659.714286 234,697 289.285714,744.571429 C340.714286,789.571429 415.285714,887.285714 596.571429,887.285714 C739.285714,887.285714 825.428571,771.571429 860.142857,695.714286 C865.285714,690.571429 857.571429,685.428571 852.428571,690.571429 Z M69.4285714,514.428571 C66.8571429,488.714286 83.5714286,466.857143 105.428571,465.571429 C127.285714,464.285714 146.571429,483.571429 149.142857,508 C151.714286,533.714286 135,555.571429 113.142857,556.857143 C91.2857143,559.428571 72,540.142857 69.4285714,514.428571 Z M145.285714,622.428571 C140.142857,623.714286 135,623.714286 128.571429,623.714286 C177.428571,608.285714 208.285714,554.285714 200.571429,496.428571 C191.571429,438.571429 146.571429,396.142857 95.1428571,394.857143 C100.285714,393.571429 105.428571,392.285714 110.571429,391 C168.428571,382 225,427 235.285714,490 C245.571429,554.285714 203.142857,614.714286 145.285714,622.428571 Z" id="Shape" fill-rule="nonzero"></path>
        </g>
    </g>
</svg>