<?xml version="1.0" encoding="UTF-8"?>
<svg width="65px" height="79px" viewBox="0 0 65 79" version="1.1" xmlns="http://www.w3.org/2000/svg" xmlns:xlink="http://www.w3.org/1999/xlink">
    <!-- Generator: Sketch 53.2 (72643) - https://sketchapp.com -->
    <title>NetherWebsite_SkullLogoStacked-08</title>
    <desc>Created with Sketch.</desc>
    <g id="Page-1" stroke="none" stroke-width="1" fill="none" fill-rule="evenodd">
        <g id="NetherWebsite_SkullLogoStacked-08" fill="#FEAD6F" fill-rule="nonzero">
            <path d="M47.32,12.69 C47.1775877,12.5669752 46.9665797,12.56672 46.8238702,12.6894001 C46.6811608,12.8120801 46.6497432,13.0207362 46.75,13.18 C51.5581804,20.0240222 52.8415567,28.7405952 50.21,36.68 C50.1271573,36.8677768 50.2122232,37.0871573 50.4,37.17 C50.5877768,37.2528427 50.8071573,37.1677768 50.89,36.98 C55.5191014,29.0432687 54.0369973,18.9591491 47.32,12.69 L47.32,12.69 Z" id="Path"></path>
            <path d="M28,39.51 L28,39.61 C28.1778885,40.8364666 28.8369912,41.9415572 29.831575,42.6809271 C30.8261588,43.4202969 32.0742913,43.7330378 33.3,43.55 L33.77,43.48 C33.9165634,43.4602627 34.0490032,43.3823343 34.1374337,43.2637997 C34.2258642,43.1452652 34.2628338,42.996113 34.24,42.85 L33.66,38.85 C33.618224,38.5468583 33.8275184,38.2663146 34.13,38.22 L34.71,38.13 C35.0153171,38.0878707 35.298821,38.2960689 35.35,38.6 L35.93,42.6 C35.9497373,42.7465634 36.0276657,42.8790032 36.1462003,42.9674337 C36.2647348,43.0558642 36.413887,43.0928338 36.56,43.07 L37.14,42.99 C37.4479791,42.9436305 37.6617194,42.6586434 37.62,42.35 L37,38.41 C36.9770509,38.2627457 37.0137449,38.1124178 37.1019583,37.9922975 C37.1901716,37.8721772 37.322627,37.792174 37.47,37.77 L38.05,37.69 C38.196113,37.6671662 38.3452652,37.7041358 38.4637997,37.7925663 C38.5823343,37.8809968 38.6602627,38.0134366 38.68,38.16 L39.26,42.1 C39.3063695,42.4079791 39.5913566,42.6217194 39.9,42.58 L40.48,42.49 C40.7824816,42.4436854 40.991776,42.1631417 40.95,41.86 L40.37,37.86 C40.3471662,37.713887 40.3841358,37.5647348 40.4725663,37.4462003 C40.5609968,37.3276657 40.6934366,37.2497373 40.84,37.23 L41.42,37.14 C41.5672543,37.1170509 41.7175822,37.1537449 41.8377025,37.2419583 C41.9578228,37.3301716 42.037826,37.462627 42.06,37.61 L42.64,41.61 C42.6765154,41.900828 42.9383691,42.1094234 43.23,42.08 C43.7005059,42.0260755 44.1283348,41.7816239 44.4136944,41.4036642 C44.6990539,41.0257045 44.8169923,40.5472856 44.74,40.08 L43.86,34 C46.28,31.66 47.49,28.46 46.86,24.19 C45.9069904,17.9504459 41.5754122,12.752552 35.61,10.69 C25.9832945,13.2894192 19.8169661,22.6720289 21.25,32.54 C21.4333139,33.8147939 21.7448946,35.0678174 22.18,36.28 C22.9716163,38.415732 25.0903368,39.7614058 27.36,39.57 L28,39.51 Z M40.38,20.73 C42.5,20.41 44.52,22.26 44.9,24.84 C45.28,27.42 43.9,29.77 41.75,30.09 C39.6,30.41 37.61,28.55 37.23,26 C36.85,23.45 38.26,21 40.38,20.73 Z M37.16,30.87 L39.61,33.6 C39.7475868,33.7561793 39.789106,33.9749358 39.7183102,34.1706654 C39.6475144,34.366395 39.475661,34.5079741 39.27,34.54 L38.6,34.64 C38.3512387,34.6708246 38.1026103,34.5817637 37.93,34.4 L37.63,34.06 C37.5028523,33.8940317 37.2962206,33.8093389 37.0891657,33.8383266 C36.8821108,33.8673143 36.7066815,34.0054956 36.63,34.2 L36.43,34.61 C36.3285303,34.8374259 36.1167403,34.9962683 35.87,35.03 L35.19,35.13 C34.9835081,35.1626058 34.7760469,35.0774814 34.6519667,34.9092371 C34.5278865,34.7409928 34.5078486,34.5176437 34.6,34.33 L36.2,31 C36.2844661,30.8241604 36.4516687,30.7025598 36.6449789,30.6763824 C36.8382891,30.650205 37.0318103,30.7229575 37.16,30.87 Z M29.7,22.3 C31.602504,21.9273184 33.5401917,22.7507564 34.5923616,24.3790535 C35.6445315,26.0073505 35.5990738,28.1122537 34.4775878,29.6936083 C33.3561019,31.2749628 31.3846712,32.013979 29.5000305,31.5595098 C27.6153898,31.1050406 26.197469,29.5487037 25.92,27.63 C25.7115683,26.4215664 25.9931909,25.1798866 26.702573,24.1796203 C27.4119551,23.179354 28.4906319,22.5029396 29.7,22.3 L29.7,22.3 Z" id="Shape"></path>
            <path d="M27.56,27.78 C28.9136468,27.8650272 30.1151732,28.6762488 30.7,29.9 C30.753522,30.0030921 30.868933,30.0581756 30.9827446,30.0349488 C31.0965563,30.0117219 31.181154,29.9158202 31.19,29.8 C31.2750272,28.4463532 32.0862488,27.2448268 33.31,26.66 C33.4130921,26.606478 33.4681756,26.491067 33.4449488,26.3772554 C33.4217219,26.2634437 33.3258202,26.178846 33.21,26.17 C31.8563532,26.0849728 30.6548268,25.2737512 30.07,24.05 C30.016478,23.9469079 29.901067,23.8918244 29.7872554,23.9150512 C29.6734437,23.9382781 29.588846,24.0341798 29.58,24.15 C29.4949728,25.5036468 28.6837512,26.7051732 27.46,27.29 C27.3569079,27.343522 27.3018244,27.458933 27.3250512,27.5727446 C27.3482781,27.6865563 27.4441798,27.771154 27.56,27.78 L27.56,27.78 Z" id="Path"></path>
            <path d="M38.38,26.17 C39.6700253,26.2393144 40.8198539,27.0058668 41.38,28.17 C41.4324246,28.268359 41.5436289,28.3201332 41.6526464,28.296938 C41.7616638,28.2737428 41.8421585,28.1811815 41.85,28.07 C41.9214311,26.780679 42.6873311,25.631829 43.85,25.07 C43.9475481,25.0188123 44.0000934,24.9098058 43.9793749,24.8016091 C43.9586564,24.6934123 43.8695577,24.6115291 43.76,24.6 C42.4699747,24.5306856 41.3201461,23.7641332 40.76,22.6 C40.7088123,22.5024519 40.5998058,22.4499066 40.4916091,22.4706251 C40.3834123,22.4913436 40.3015291,22.5804423 40.29,22.69 C40.2228183,23.9807331 39.4556068,25.1315503 38.29,25.69 C38.181927,25.7358842 38.1203453,25.8507917 38.1419826,25.9661908 C38.1636199,26.0815898 38.2626457,26.1663835 38.38,26.17 Z" id="Path"></path>
            <path d="M50.94,41.6 C48.0209904,45.4086204 43.7429795,47.9417474 39,48.67 C28.17,50.26 17.94,41.76 16.16,29.67 C14.38,17.58 21.72,6.51 32.56,4.92 C36.8297992,4.31565243 41.1766154,5.22109177 44.85,7.48 C45.0125162,7.57788473 45.2231055,7.53284765 45.3313694,7.3770533 C45.4396333,7.22125895 45.4084106,7.00818307 45.26,6.89 C39.1467732,1.78848671 31.1167791,-0.401511695 23.26,0.89 C8.42971182,3.45754328 -1.63943726,17.3936363 0.58,32.28 C0.75,33.47 2,37.75 5.16,38.52 C9.74856427,39.5468856 13.9971853,41.7331695 17.5,44.87 C20.58,47.52 24.98,53.38 35.8,53.38 C44.3,53.38 49.42,46.49 51.47,41.94 C51.5288819,41.7969899 51.4770596,41.6323341 51.3468852,41.548826 C51.2167108,41.4653179 51.0454418,41.4868585 50.94,41.6 Z M4.26,31.11 C4.04896495,29.7164011 4.99107678,28.4098875 6.38,28.17 C7.06599212,28.1593178 7.72798861,28.4223042 8.2196405,28.9008203 C8.7112924,29.3793365 8.99210555,30.0339701 9,30.72 C9.24157194,32.1335243 8.29306438,33.475752 6.88,33.72 C6.1844249,33.7280785 5.51483857,33.4560173 5.02201994,32.9650796 C4.5292013,32.474142 4.25458149,31.8056009 4.26,31.11 Z M8.8,37.55 C8.46806362,37.5878482 8.13405622,37.6045486 7.8,37.6 C10.8922119,36.4501311 12.710433,33.2439873 12.11,30 C11.7413792,26.7491772 9.10389124,24.2252652 5.84,24 C6.14612355,23.8964009 6.4606267,23.819448 6.78,23.77 C10.4501177,23.3890705 13.7460029,26.0257787 14.18,29.69 C14.8219244,33.3369675 12.4320586,36.8284814 8.8,37.55 Z" id="Shape"></path>
            <polygon id="Path" points="13.5 78.49 5.16 64.87 5.08 64.87 5.16 78.48 0.28 78.48 0.34 57.68 6.07 57.68 14.37 71.28 14.46 71.28 14.38 57.7 19.26 57.7 19.2 78.5"></polygon>
            <path d="M29.61,67.53 L29.61,73.14 C29.5713268,73.6864088 29.7117477,74.2305397 30.01,74.69 C30.3776636,75.0732731 30.9017692,75.2651991 31.43,75.21 C31.6811301,75.208349 31.9318015,75.1882953 32.18,75.15 C32.4069445,75.1192168 32.6288502,75.058697 32.84,74.97 L32.84,78.5 C32.4259965,78.6383754 32.001198,78.7420663 31.57,78.81 C31.0672522,78.8896979 30.5590256,78.929821 30.05,78.93 C29.2112206,78.954436 28.374802,78.8291425 27.58,78.56 C26.9702893,78.3447289 26.4261936,77.976259 26,77.49 C25.5897714,77.0137849 25.2954132,76.4490279 25.14,75.84 C24.9564926,75.1452005 24.869013,74.4285406 24.88,73.71 L24.88,67.52 L22.56,67.52 L22.56,63.93 L24.88,63.93 L24.88,59.23 L29.61,58.44 L29.61,64 L33.04,64 L33.04,67.58 L29.61,67.53 Z" id="Path"></path>
            <path d="M46.09,78.62 L46.09,70.69 C46.0914019,70.2982183 46.061305,69.906958 46,69.52 C45.9554437,69.1685213 45.8433897,68.8289637 45.67,68.52 C45.507651,68.2437341 45.2812977,68.0105216 45.01,67.84 C44.6990294,67.6759207 44.3515402,67.593349 44,67.6 C43.2464944,67.5604875 42.5215311,67.8930737 42.06,68.49 C41.5943746,69.1345916 41.3552667,69.9152084 41.38,70.71 L41.38,78.61 L36.51,78.61 L36.57,57.29 L41.39,56.49 L41.39,65.84 L41.45,65.84 C41.8356399,65.1990898 42.3665993,64.6578538 43,64.26 C43.7919516,63.7913215 44.7000801,63.555624 45.62,63.58 C46.4883897,63.5503282 47.3506434,63.735833 48.13,64.12 C48.7746079,64.4446846 49.3357779,64.9134668 49.77,65.49 C50.195246,66.0647683 50.5043461,66.7169355 50.68,67.41 C50.8755503,68.1208178 50.9830222,68.8529698 51,69.59 L51,78.59 L46.09,78.62 Z" id="Path"></path>
            <path d="M64.57,68.13 C64.2949587,68.0340404 64.0097223,67.9702817 63.72,67.94 L63.12,67.94 C62.5571588,67.9197636 61.9978154,68.0364364 61.49,68.28 C61.0812121,68.4862428 60.7201329,68.7757875 60.43,69.13 C60.1678056,69.4485434 59.9707411,69.815491 59.85,70.21 C59.7430249,70.5331472 59.6824214,70.8698332 59.67,71.21 L59.67,78.71 L54.83,78.71 L54.83,64.09 L59.47,64.09 L59.47,66.2 L59.53,66.2 C59.8904626,65.4611963 60.4387806,64.8301134 61.12,64.37 C61.8190996,63.8903329 62.6525296,63.6452065 63.5,63.67 C63.6898554,63.6595181 63.8801446,63.6595181 64.07,63.67 C64.2261008,63.6835336 64.3803091,63.7137048 64.53,63.76 L64.57,68.13 Z" id="Path"></path>
            <path d="M60,9 L63.87,10.72 C64.0889949,10.8104289 64.3413911,10.7347401 64.4744872,10.5387259 C64.6075833,10.3427116 64.5848328,10.0801949 64.42,9.91 L61.42,6.91 C60.9431141,6.43922484 60.8076929,5.72228939 61.08,5.11 L62.8,1.24 C62.8899926,1.02330198 62.8171933,0.773176161 62.6249674,0.638618018 C62.4327415,0.504059875 62.172806,0.521271402 62,0.68 L59,3.68 C58.5246239,4.15002243 57.8082473,4.27737827 57.2,4 L53.33,2.31 C53.1110051,2.2195711 52.8586089,2.29525987 52.7255128,2.49127415 C52.5924167,2.68728842 52.6151672,2.9498051 52.78,3.12 L55.78,6.12 C56.2622987,6.58787797 56.3984037,7.30843381 56.12,7.92 L54.4,11.79 C54.3095711,12.0089949 54.3852599,12.2613911 54.5812741,12.3944872 C54.7772884,12.5275833 55.0398051,12.5048328 55.21,12.34 L58.21,9.34 C58.6789818,8.86747683 59.3904252,8.73234233 60,9 L60,9 Z" id="Path"></path>
        </g>
    </g>
</svg>