<?xml version="1.0" encoding="UTF-8"?>
<svg width="161px" height="54px" viewBox="0 0 161 54" version="1.1" xmlns="http://www.w3.org/2000/svg" xmlns:xlink="http://www.w3.org/1999/xlink">
    <!-- Generator: Sketch 53.2 (72643) - https://sketchapp.com -->
    <title>NetherWebsite_Headerlogo</title>
    <desc>Created with Sketch.</desc>
    <g id="Page-1" stroke="none" stroke-width="1" fill="none" fill-rule="evenodd">
        <g id="NetherWebsite_Headerlogo" fill="#18255B" fill-rule="nonzero">
            <polygon id="Path" points="75.32 33.16 67.08 19.69 67 19.69 67.08 33.14 62.26 33.14 62.31 12.58 67.97 12.58 76.18 26 76.27 26 76.19 12.6 81.01 12.6 81 33.17"></polygon>
            <path d="M99.3,26.13 L99.3,26.13 C99.3170403,25.0173112 99.1376234,23.9103426 98.77,22.86 C98.4454964,21.9413877 97.9386841,21.0978345 97.28,20.38 C96.6428433,19.6999689 95.8646593,19.1675273 95,18.82 C94.0673796,18.4524408 93.0723776,18.2690616 92.07,18.28 C91.0186222,18.2661095 89.9739439,18.4492674 88.99,18.82 C88.0720093,19.1677246 87.2323767,19.6946196 86.52,20.37 C85.8028017,21.054984 85.2372882,21.8828141 84.86,22.8 C84.4349385,23.8128369 84.2205833,24.9016252 84.23,26 C84.2047766,27.1139932 84.4125477,28.2209706 84.84,29.25 C85.2332416,30.1622761 85.8161567,30.9804026 86.55,31.65 C87.2884574,32.3115942 88.1521768,32.8182642 89.09,33.14 C90.076158,33.4872668 91.1144896,33.6631406 92.16,33.66 C93.4819611,33.6874969 94.7935319,33.4210841 96,32.88 C97.0829491,32.376594 98.0116647,31.5928823 98.69,30.61 L95.39,28.51 C95.050205,28.9618899 94.6126271,29.3310963 94.11,29.59 C93.5148897,29.8875002 92.8549699,30.0318577 92.19,30.01 C91.7843519,30.0073575 91.3820504,29.9363631 91,29.8 C90.61146,29.6770734 90.248784,29.4838721 89.93,29.23 C89.6169137,28.997349 89.3491509,28.7092498 89.14,28.38 C89.0472959,28.2176977 88.9702806,28.0469247 88.91,27.87 L99.3,26.13 Z M89.08,23.25 C89.255783,22.9151689 89.4932875,22.6165918 89.78,22.37 C90.0766406,22.1143846 90.4148614,21.9114521 90.78,21.77 C91.1911785,21.625981 91.6243587,21.5549124 92.06,21.56 C92.8567252,21.5022335 93.6376888,21.8028861 94.19,22.38 C94.5526436,22.7898031 94.7857824,23.297837 94.86,23.84 L88.78,24.84 L88.78,24.84 L88.78,24.28 C88.8092844,23.9199059 88.9113442,23.5695005 89.08,23.25 Z" id="Shape"></path>
            <path d="M108,22.33 L108,27.87 C107.961308,28.4087392 108.098135,28.9455206 108.39,29.4 C108.753864,29.7819413 109.275996,29.9707977 109.8,29.91 C110.047411,29.9072808 110.294472,29.8905876 110.54,29.86 C110.764007,29.8306351 110.982798,29.7700468 111.19,29.68 L111.19,33.17 C110.781119,33.3000335 110.36336,33.4002955 109.94,33.47 C109.441563,33.5583689 108.936207,33.6018764 108.43,33.6 C107.601702,33.6139259 106.776933,33.4888584 105.99,33.23 C105.3839,33.0125232 104.841081,32.6483532 104.41,32.17 C104.006942,31.6980084 103.716304,31.1406672 103.56,30.54 C103.379307,29.8516471 103.295168,29.1415193 103.31,28.43 L103.31,22.32 L100.99,22.32 L100.99,18.77 L103.28,18.77 L103.28,14.12 L107.96,13.34 L107.96,18.79 L111.36,18.79 L111.36,22.33 L108,22.33 Z" id="Path"></path>
            <path d="M124.31,33.29 L124.31,25.45 C124.309625,25.0619681 124.282897,24.6744097 124.23,24.29 C124.184651,23.9372907 124.069038,23.5972551 123.89,23.29 C123.737994,23.0119329 123.513334,22.7803605 123.24,22.62 C122.935496,22.4475481 122.589834,22.3611326 122.24,22.37 C121.493196,22.3242662 120.772867,22.6544172 120.32,23.25 C119.857393,23.8842082 119.621421,24.6555204 119.65,25.44 L119.65,33.25 L114.89,33.25 L114.95,12.19 L119.71,11.39 L119.71,20.64 L119.77,20.64 C120.155943,20.0005364 120.695641,19.4677137 121.34,19.09 C122.116029,18.6183307 123.012303,18.3821034 123.92,18.41 C124.780167,18.3879976 125.633357,18.5696002 126.41,18.94 C127.034761,19.27351 127.577795,19.7414072 128,20.31 C128.420781,20.8774197 128.723421,21.5235067 128.89,22.21 C129.078077,22.910912 129.168927,23.634348 129.16,24.36 L129.16,33.3 L124.31,33.29 Z" id="Path"></path>
            <path d="M160.11,22.91 C159.836711,22.8221106 159.555307,22.7618098 159.27,22.73 L158.68,22.73 C158.12359,22.7097987 157.570733,22.8265511 157.07,23.07 C156.682304,23.2780402 156.341837,23.5640328 156.07,23.91 C155.814768,24.2278892 155.621425,24.5908307 155.5,24.98 C155.390687,25.3025486 155.330022,25.639579 155.32,25.98 L155.32,33.39 L150.56,33.39 L150.56,18.95 L155.15,18.95 L155.15,21 L155.21,21 C155.569314,20.271919 156.109995,19.6485865 156.78,19.19 C157.478098,18.7251497 158.301439,18.4844269 159.14,18.5 C159.326527,18.489784 159.513473,18.489784 159.7,18.5 C159.852956,18.5126344 160.00395,18.5428332 160.15,18.59 L160.11,22.91 Z" id="Path"></path>
            <path d="M147.06,26.13 L147.06,26.13 C147.081982,25.016957 146.902424,23.909118 146.53,22.86 C146.208975,21.9419775 145.705544,21.09839 145.05,20.38 C144.409954,19.6987666 143.628245,19.1662486 142.76,18.82 C141.824187,18.4514129 140.825713,18.2680199 139.82,18.28 C138.771881,18.2661776 137.730492,18.4493535 136.75,18.82 C135.828928,19.1675042 134.985979,19.6943474 134.27,20.37 C133.556144,21.0578146 132.99114,21.8848979 132.61,22.8 C132.196515,23.8156733 131.98916,24.9034398 132,26 C131.977941,27.1147008 132.189123,28.2217054 132.62,29.25 C133.005992,30.1663402 133.589948,30.9859275 134.33,31.65 C135.064862,32.3113288 135.925267,32.8180496 136.86,33.14 C137.849619,33.4872466 138.891231,33.663103 139.94,33.66 C141.275943,33.6879648 142.601349,33.4181011 143.82,32.87 C144.901382,32.3641423 145.829511,31.5809256 146.51,30.6 L143.2,28.5 C142.86254,28.9540911 142.424404,29.3237683 141.92,29.58 C141.32489,29.8775002 140.66497,30.0218577 140,30 C139.577728,30.0010788 139.15837,29.9300586 138.76,29.79 C138.373367,29.6625754 138.011453,29.4697804 137.69,29.22 C137.377458,28.989797 137.112561,28.7011272 136.91,28.37 C136.813214,28.2098097 136.735995,28.0385863 136.68,27.86 L147.06,26.12 L147.06,26.13 Z M136.85,23.25 C137.025783,22.9151689 137.263288,22.6165918 137.55,22.37 C137.846641,22.1143846 138.184861,21.9114521 138.55,21.77 C138.957708,21.6259287 139.387617,21.5548414 139.82,21.56 C140.619495,21.5034277 141.403023,21.8036582 141.96,22.38 C142.320041,22.7903678 142.549794,23.2986109 142.62,23.84 L136.55,24.84 L136.55,24.84 L136.55,24.28 C136.579284,23.9199059 136.681344,23.5695005 136.85,23.25 Z" id="Shape"></path>
            <path d="M47.4,12.35 C47.2575877,12.2269752 47.0465797,12.22672 46.9038702,12.3494001 C46.7611608,12.4720801 46.7297432,12.6807362 46.83,12.84 C51.6608792,19.7199618 52.948005,28.4813198 50.3,36.46 C50.2374555,36.6453699 50.325874,36.847934 50.5043279,36.9281089 C50.6827818,37.0082838 50.892946,36.9398656 50.99,36.77 C55.6418217,28.790236 54.1515902,18.653341 47.4,12.35 Z" id="Path"></path>
            <path d="M27.94,39.31 L27.94,39.41 C28.1107558,40.6498611 28.7699927,41.7700411 29.7710187,42.5212801 C30.7720447,43.2725191 32.0318119,43.5924923 33.27,43.41 L33.74,43.34 C33.8891993,43.3202372 34.0241638,43.241251 34.1144653,43.120849 C34.2047668,43.000447 34.2428035,42.8487649 34.22,42.7 L33.64,38.7 C33.6170509,38.5527457 33.6537449,38.4024178 33.7419583,38.2822975 C33.8301716,38.1621772 33.962627,38.082174 34.11,38.06 L34.7,38 C35.0086434,37.9582806 35.2936305,38.1720209 35.34,38.48 L35.93,42.48 C35.9472732,42.6283836 36.0241611,42.7633578 36.1429871,42.8538919 C36.2618132,42.944426 36.4123539,42.9827308 36.56,42.96 L37.15,42.87 C37.2965634,42.8502627 37.4290032,42.7723343 37.5174337,42.6537997 C37.6058642,42.5352652 37.6428338,42.386113 37.62,42.24 L37.04,38.24 C37.0170509,38.0927457 37.0537449,37.9424178 37.1419583,37.8222975 C37.2301716,37.7021772 37.362627,37.622174 37.51,37.6 L38.1,37.52 C38.246113,37.4971662 38.3952652,37.5341358 38.5137997,37.6225663 C38.6323343,37.7109968 38.7102627,37.8434366 38.73,37.99 L39.32,41.99 C39.342174,42.137373 39.4221772,42.2698284 39.5422975,42.3580417 C39.6624178,42.4462551 39.8127457,42.4829491 39.96,42.46 L40.54,42.38 C40.687373,42.357826 40.8198284,42.2778228 40.9080417,42.1577025 C40.9962551,42.0375822 41.0329491,41.8872543 41.01,41.74 L40.43,37.74 C40.3882806,37.4313566 40.6020209,37.1463695 40.91,37.1 L41.49,37.02 C41.6372543,36.9970509 41.7875822,37.0337449 41.9077025,37.1219583 C42.0278228,37.2101716 42.107826,37.342627 42.13,37.49 L42.71,41.49 C42.7513801,41.7836157 43.0144622,41.9940814 43.31,41.97 C43.7786953,41.9105205 44.2037966,41.6651001 44.4896708,41.2889498 C44.775545,40.9127995 44.8981846,40.4375082 44.83,39.97 L43.92,33.8 C46.35,31.44 47.57,28.23 46.92,23.94 C45.9765617,17.6485826 41.6261236,12.3972573 35.62,10.3 C25.9287468,12.9153719 19.7279688,22.3690874 21.19,32.3 C21.3766487,33.5849045 21.6915545,34.8478777 22.13,36.07 C22.9257339,38.212812 25.0523198,39.5623761 27.33,39.37 L27.94,39.31 Z M40.42,20.43 C42.55,20.11 44.58,21.97 44.97,24.57 C45.36,27.17 43.97,29.52 41.8,29.84 C39.63,30.16 37.63,28.3 37.25,25.7 C36.87,23.1 38.29,20.74 40.42,20.43 Z M37.18,30.63 L39.65,33.37 C39.7875868,33.5261793 39.829106,33.7449358 39.7583102,33.9406654 C39.6875144,34.136395 39.515661,34.2779741 39.31,34.31 L38.63,34.41 C38.380333,34.4496965 38.1276768,34.3591928 37.96,34.17 L37.66,33.83 C37.5296668,33.6697963 37.325054,33.5894025 37.1205251,33.6180366 C36.9159962,33.6466706 36.7413277,33.7801638 36.66,33.97 L36.46,34.39 C36.3507992,34.6153582 36.1375919,34.7724583 35.89,34.81 L35.21,34.91 C35.0027597,34.9376347 34.797022,34.849593 34.6739261,34.680597 C34.5508303,34.511601 34.5301342,34.288776 34.62,34.1 L36.19,30.77 C36.2683754,30.5799965 36.4414546,30.4456622 36.6449633,30.4168832 C36.848472,30.3881042 37.0520131,30.4691791 37.18,30.63 Z M29.68,22 C31.5898198,21.6238803 33.536211,22.4484712 34.5946075,24.082079 C35.653004,25.7156868 35.6101184,27.8291081 34.4863221,29.4184348 C33.3625258,31.0077615 31.3842853,31.7527137 29.4912959,31.2994273 C27.5983064,30.846141 26.1720418,29.2859621 25.89,27.36 C25.6812933,26.146569 25.9634285,24.899939 26.6742787,23.8946206 C27.3851289,22.8893021 28.4664022,22.2077344 29.68,22 Z" id="Shape"></path>
            <path d="M27.53,27.52 C28.8903524,27.6082492 30.0978066,28.4221345 30.69,29.65 C30.7483453,29.7489334 30.8628942,29.8001261 30.9755202,29.7776009 C31.0881462,29.7550757 31.1741941,29.6637637 31.19,29.55 C31.2700632,28.1897289 32.081698,26.9799336 33.31,26.39 C33.4123237,26.3377326 33.4682065,26.2244985 33.4474496,26.1114888 C33.4266928,25.9984792 33.3342187,25.9124943 33.22,25.9 C31.8582323,25.8159075 30.6488713,25.0007369 30.06,23.77 C30.0016547,23.6710666 29.8871058,23.6198739 29.7744798,23.6423991 C29.6618538,23.6649243 29.5758059,23.7562363 29.56,23.87 C29.4695239,25.222184 28.6546471,26.4196321 27.43,27 C27.286406,27.0276142 27.1923858,27.166406 27.22,27.31 C27.2476142,27.453594 27.386406,27.5476142 27.53,27.52 L27.53,27.52 Z" id="Path"></path>
            <path d="M38.41,25.9 C39.6979223,25.9756166 40.8448453,26.740232 41.41,27.9 C41.4624246,27.998359 41.5736289,28.0501332 41.6826464,28.026938 C41.7916638,28.0037428 41.8721585,27.9111815 41.88,27.8 C41.9556166,26.5120777 42.720232,25.3651547 43.88,24.8 C43.9775481,24.7488123 44.0300934,24.6398058 44.0093749,24.5316091 C43.9886564,24.4234123 43.8995577,24.3415291 43.79,24.33 C42.5013801,24.2564683 41.3534985,23.4912139 40.79,22.33 C40.7388123,22.2324519 40.6298058,22.1799066 40.5216091,22.2006251 C40.4134123,22.2213436 40.3315291,22.3104423 40.32,22.42 C40.2485689,23.709321 39.4826689,24.858171 38.32,25.42 C38.211927,25.4658842 38.1503453,25.5807917 38.1719826,25.6961908 C38.1936199,25.8115898 38.2926457,25.8963835 38.41,25.9 Z" id="Path"></path>
            <path d="M148.44,8.8 L152.27,10.5 C152.487238,10.5969352 152.742716,10.5238386 152.875806,10.3266689 C153.008895,10.1294991 152.981144,9.86522256 152.81,9.7 L149.81,6.76 C149.355559,6.29239661 149.232675,5.59473272 149.5,5 L151.2,1.18 C151.309834,0.961256554 151.241402,0.695013297 151.039701,0.556344105 C150.838,0.417674913 150.564907,0.449119152 150.4,0.63 L147.46,3.63 C146.995632,4.10345158 146.286178,4.23896512 145.68,3.97 L141.86,2.27 C141.641257,2.16016558 141.375013,2.22859843 141.236344,2.43029907 C141.097675,2.63199972 141.129119,2.90509271 141.31,3.07 L144.31,6.01 C144.783452,6.47436841 144.918965,7.18382166 144.65,7.79 L142.95,11.61 C142.840166,11.8287434 142.908598,12.0949867 143.110299,12.2336559 C143.312,12.3723251 143.585093,12.3408808 143.75,12.16 L146.69,9.16 C147.142974,8.69004524 147.838305,8.54700574 148.44,8.8 Z" id="Path"></path>
            <path d="M51,41.41 C48.0666551,45.2389195 43.7672667,47.7863071 39,48.52 C28.1,50.12 17.82,41.52 16,29.43 C14.18,17.34 21.67,6.14 32.56,4.54 C36.8516376,3.93148513 41.2209041,4.84425498 44.91,7.12 C45.0741944,7.20283181 45.2743037,7.15249685 45.3797661,7.00183629 C45.4852285,6.85117574 45.4640293,6.64592482 45.33,6.52 C39.1896632,1.41014922 31.1319907,-0.77943568 23.25,0.52 C8.33773259,3.08385517 -1.80201191,17.0814972 0.41,32.05 C0.58,33.24 1.8,37.54 5,38.31 C9.61183906,39.3443633 13.8812399,41.544482 17.4,44.7 C20.5,47.36 24.92,53.25 35.8,53.25 C44.34,53.25 49.49,46.33 51.55,41.75 C51.6438884,41.5981217 51.5968783,41.3988884 51.445,41.305 C51.2931217,41.2111116 51.0938884,41.2581217 51,41.41 L51,41.41 Z M4.12,30.87 C4.00122021,30.190781 4.15818407,29.4922359 4.55611728,28.9291229 C4.95405049,28.3660098 5.56010017,27.9848188 6.24,27.87 C7.66099853,27.8699893 8.81449225,29.0190121 8.82,30.44 C8.93877979,31.119219 8.78181593,31.8177641 8.38388272,32.3808771 C7.98594951,32.9439902 7.37989983,33.3251812 6.7,33.44 C5.28349233,33.4291973 4.1363036,32.286455 4.12,30.87 Z M8.68,37.34 C8.34699282,37.3608537 8.01300718,37.3608537 7.68,37.34 C10.7506143,36.1867225 12.5653344,33.0109625 12,29.78 C11.6401187,26.5048103 8.98707078,23.9570421 5.7,23.73 C6.00645618,23.627548 6.32086131,23.5506191 6.64,23.5 C10.3286879,23.1189142 13.6408718,25.7677709 14.08,29.45 C14.64,33.27 12.14,36.83 8.68,37.34 Z" id="Shape"></path>
            <path d="M124.33,41.66 C124.070846,41.7797532 123.799175,41.8703099 123.52,41.93 C123.19142,42.000402 122.856014,42.0339426 122.52,42.03 C122.151642,42.0305052 121.786069,41.9661913 121.44,41.84 C121.13232,41.7173845 120.850679,41.5375415 120.61,41.31 C120.378662,41.077993 120.195184,40.8027761 120.07,40.5 C119.94065,40.182327 119.872782,39.8429865 119.87,39.5 C119.869994,39.1363322 119.941341,38.7761965 120.08,38.44 C120.206549,38.1388274 120.397722,37.8691365 120.64,37.65 C120.879065,37.4252726 121.161501,37.2517277 121.47,37.14 C121.791268,37.026983 122.129434,36.9694948 122.47,36.97 C122.834028,36.96126 123.196606,37.0188659 123.54,37.14 C123.826967,37.2326681 124.092268,37.3823251 124.32,37.58 L123.72,38.23 C123.574425,38.0741716 123.397098,37.9514064 123.2,37.87 C122.971445,37.7767638 122.72684,37.7292016 122.48,37.73 C122.240224,37.7249095 122.00196,37.7691584 121.78,37.86 C121.578534,37.9479123 121.397922,38.0774082 121.25,38.24 C121.101016,38.4025461 120.985486,38.5928301 120.91,38.8 C120.82856,39.0243058 120.787919,39.2613762 120.79,39.5 C120.787456,39.745181 120.828075,39.9888971 120.91,40.22 C120.981571,40.4290259 121.097563,40.6200717 121.25,40.78 C121.399762,40.9449533 121.58417,41.0747222 121.79,41.16 C122.018648,41.2518939 122.263653,41.2961309 122.51,41.29 C122.851562,41.30401 123.192256,41.246092 123.51,41.12 L123.51,39.85 L122.51,39.85 L122.51,39.13 L124.37,39.13 L124.33,41.66 Z" id="Path"></path>
            <path d="M129.8,37.07 L130.54,37.07 L132.62,41.93 L131.62,41.93 L131.17,40.82 L129.06,40.82 L128.62,41.93 L127.62,41.93 L129.8,37.07 Z M130.89,40.07 L130.14,38.07 L129.38,40.07 L130.89,40.07 Z" id="Shape"></path>
            <polygon id="Path" points="136 37.09 137.35 37.09 138.6 40.54 138.6 40.54 139.86 37.1 141.22 37.1 141.22 41.96 140.37 41.96 140.37 38.06 140.37 38.06 138.88 42 138.27 42 136.83 38 136.83 38 136.83 41.9 136 41.9"></polygon>
            <polygon id="Path" points="145.19 37.11 148.4 37.11 148.4 37.86 146.05 37.86 146.05 39.1 148.28 39.1 148.28 39.83 146 39.83 146 41.2 148.47 41.2 148.47 42 145.13 42"></polygon>
            <path d="M154.72,38.15 C154.618172,38.0220245 154.488114,37.9193465 154.34,37.85 C154.181026,37.7726086 154.006804,37.7316152 153.83,37.73 C153.730569,37.7149147 153.629431,37.7149147 153.53,37.73 C153.434088,37.7500345 153.342606,37.7873047 153.26,37.84 C153.175786,37.8941741 153.104174,37.9657856 153.05,38.05 C152.996566,38.1408716 152.968908,38.244588 152.97,38.35 C152.965638,38.451322 152.989898,38.5518245 153.04,38.64 C153.090271,38.7151722 153.154828,38.7797294 153.23,38.83 C153.318895,38.8937752 153.416582,38.9443025 153.52,38.98 L153.9,39.1 L154.38,39.28 C154.544353,39.3412288 154.69922,39.4253957 154.84,39.53 C154.978972,39.6392243 155.094591,39.7752473 155.18,39.93 C155.274194,40.1154984 155.318968,40.3221499 155.31,40.53 C155.313993,40.7642121 155.266187,40.9964134 155.17,41.21 C155.074031,41.3948804 154.94132,41.5582169 154.78,41.69 C154.612435,41.8197804 154.422688,41.9180423 154.22,41.98 C153.998445,42.0406086 153.769693,42.0708846 153.54,42.07 C153.222395,42.0686802 152.907533,42.0111248 152.61,41.9 C152.326863,41.7854457 152.073724,41.6075645 151.87,41.38 L152.49,40.8 C152.611386,40.9713919 152.777389,41.1062698 152.97,41.19 C153.148746,41.2851762 153.347523,41.3365842 153.55,41.34 C153.652815,41.3546336 153.757185,41.3546336 153.86,41.34 C154.069513,41.3074381 154.251248,41.1776272 154.35,40.99 C154.40899,40.8904438 154.436851,40.7755176 154.43,40.66 C154.4367,40.5476608 154.408777,40.43597 154.35,40.34 C154.284923,40.2518874 154.203428,40.1771839 154.11,40.12 C153.995558,40.0549492 153.874973,40.0013559 153.75,39.96 L153.32,39.81 C153.170254,39.7655492 153.023321,39.7121191 152.88,39.65 C152.735633,39.5871048 152.603583,39.4990713 152.49,39.39 C152.369602,39.2833409 152.271106,39.1542765 152.2,39.01 C152.123392,38.8264219 152.085927,38.6288798 152.09,38.43 C152.088567,37.9976085 152.302214,37.5928034 152.66,37.35 C152.83242,37.2312608 153.025861,37.1464182 153.23,37.1 C153.438034,37.0400269 153.653494,37.0097279 153.87,37.01 C154.128415,37.0150204 154.384608,37.058843 154.63,37.14 C154.875546,37.2257238 155.100385,37.3619899 155.29,37.54 L154.72,38.15 Z" id="Path"></path>
        </g>
    </g>
</svg>