<?xml version="1.0" encoding="UTF-8"?>
<svg width="71px" height="71px" viewBox="0 0 71 71" version="1.1" xmlns="http://www.w3.org/2000/svg" xmlns:xlink="http://www.w3.org/1999/xlink">
    <!-- Generator: Sketch 53.2 (72643) - https://sketchapp.com -->
    <title>NetherWebsite_RaidIcon</title>
    <desc>Created with Sketch.</desc>
    <g id="Page-1" stroke="none" stroke-width="1" fill="none" fill-rule="evenodd">
        <g id="NetherWebsite_RaidIcon">
            <circle id="Oval" stroke="#A37950" cx="35.86" cy="35.94" r="31.15"></circle>
            <circle id="Oval" stroke="#A37950" stroke-width="0.5" cx="35.86" cy="35.94" r="26.91"></circle>
            <polyline id="Path" stroke="#A37950" points="39.03 4.95 35.86 0.94 32.7 4.95"></polyline>
            <polyline id="Path" stroke="#A37950" points="30.9 5.18 26.8 2.13 24.78 6.82"></polyline>
            <polyline id="Path" stroke="#A37950" points="23.11 7.52 18.36 5.63 17.63 10.68"></polyline>
            <polyline id="Path" stroke="#A37950" points="16.18 11.79 11.11 11.19 11.71 16.26"></polyline>
            <polyline id="Path" stroke="#A37950" points="10.6 17.7 5.55 18.44 7.44 23.18"></polyline>
            <polyline id="Path" stroke="#A37950" points="6.74 24.86 2.06 26.88 5.11 30.98"></polyline>
            <polyline id="Path" stroke="#A37950" points="4.87 32.78 0.86 35.94 4.87 39.1"></polyline>
            <polyline id="Path" stroke="#A37950" points="5.11 40.91 2.06 45 6.74 47.02"></polyline>
            <polyline id="Path" stroke="#A37950" points="7.44 48.7 5.55 53.44 10.6 54.18"></polyline>
            <polyline id="Path" stroke="#A37950" points="11.71 55.62 11.11 60.69 16.18 60.09"></polyline>
            <polyline id="Path" stroke="#A37950" points="17.63 61.2 18.36 66.25 23.11 64.36"></polyline>
            <polyline id="Path" stroke="#A37950" points="24.78 65.06 26.8 69.75 30.9 66.7"></polyline>
            <polyline id="Path" stroke="#A37950" points="32.7 66.93 35.86 70.94 39.03 66.93"></polyline>
            <polyline id="Path" stroke="#A37950" points="40.83 66.7 44.92 69.75 46.94 65.06"></polyline>
            <polyline id="Path" stroke="#A37950" points="48.62 64.36 53.36 66.25 54.1 61.2"></polyline>
            <polyline id="Path" stroke="#A37950" points="55.54 60.09 60.61 60.69 60.02 55.62"></polyline>
            <polyline id="Path" stroke="#A37950" points="61.12 54.18 66.17 53.44 64.29 48.7"></polyline>
            <polyline id="Path" stroke="#A37950" points="64.98 47.02 69.67 45 66.62 40.91"></polyline>
            <polyline id="Path" stroke="#A37950" points="66.86 39.1 70.86 35.94 66.86 32.78"></polyline>
            <polyline id="Path" stroke="#A37950" points="66.62 30.98 69.67 26.88 64.98 24.86"></polyline>
            <polyline id="Path" stroke="#A37950" points="64.29 23.18 66.17 18.44 61.12 17.7"></polyline>
            <polyline id="Path" stroke="#A37950" points="60.02 16.26 60.61 11.19 55.54 11.79"></polyline>
            <polyline id="Path" stroke="#A37950" points="54.1 10.68 53.36 5.63 48.62 7.52"></polyline>
            <polyline id="Path" stroke="#A37950" points="46.94 6.82 44.92 2.13 40.83 5.18"></polyline>
            <polyline id="Path" stroke="#15BECB" points="39.58 37.81 29.65 21.21 18.28 40.22 30.71 40.22"></polyline>
            <path d="M33.53,40.22 L41.01,40.22" id="Path" stroke="#15BECB"></path>
            <polyline id="Path" stroke="#15BECB" stroke-width="0.5" points="32.23 37.8 22.48 37.8 29.59 25.92 36.69 37.8 34.97 37.8"></polyline>
            <path d="M34.41,34.04 L30.71,40.22" id="Path" stroke="#15BECB"></path>
            <polyline id="Path" stroke="#15BECB" points="33.53 40.22 53.44 40.22 42.08 21.21 35.85 31.63"></polyline>
            <polyline id="Path" stroke="#15BECB" stroke-width="0.5" points="37.27 33.95 42.08 25.92 49.18 37.8 34.97 37.8 35.83 36.37"></polyline>
            <polyline id="Path" stroke="#15BECB" points="34.46 34.07 24.54 50.67 47.27 50.67 41.01 40.22"></polyline>
            <path d="M39.57,37.81 L35.9,31.66" id="Path" stroke="#15BECB"></path>
            <polyline id="Path" stroke="#15BECB" stroke-width="0.5" points="38.13 40.22 42.94 48.25 28.73 48.25 35.83 36.37 36.69 37.81"></polyline>
        </g>
    </g>
</svg>