<?xml version="1.0" encoding="UTF-8"?>
<svg width="70px" height="68px" viewBox="0 0 70 68" version="1.1" xmlns="http://www.w3.org/2000/svg" xmlns:xlink="http://www.w3.org/1999/xlink">
    <!-- Generator: Sketch 53.2 (72643) - https://sketchapp.com -->
    <title>NetherWebsite_SevenSailIcon</title>
    <desc>Created with Sketch.</desc>
    <g id="Page-1" stroke="none" stroke-width="1" fill="none" fill-rule="evenodd">
        <g id="NetherWebsite_SevenSailIcon">
            <path d="M52.89,11.8 C52.9622259,11.4264183 53.1684987,11.092114 53.47,10.86 L58.19,7.17 C58.735835,6.7494977 58.9955783,6.05555644 58.86,5.38 L58.45,3.3 C58.3208889,2.62788715 58.5797514,1.94016286 59.12,1.52 L60.19,0.68 C60.8394414,0.194993606 61.7305586,0.194993606 62.38,0.68 L63.24,1.3 C63.5803235,1.54397124 63.8272518,1.89672602 63.94,2.3 L64.26,3.64 C64.3693751,4.11116034 64.6618027,4.51940301 65.0727062,4.77457599 C65.4836098,5.02974896 65.9791871,5.11086094 66.45,5 L66.73,4.94 C67.2981573,4.80237568 67.8978036,4.94763161 68.34,5.33 L68.8,5.73 C69.3717028,6.22408194 69.5786485,7.02002672 69.32,7.73 L68.61,9.73 C68.3791914,10.3591636 67.822936,10.8118404 67.16,10.91 L64.92,11.23 C64.4290129,11.2964364 63.9318948,11.1631511 63.54,10.86 L63.36,10.71 C62.7005394,10.1996517 61.7794606,10.1996517 61.12,10.71 L54.12,16.19 C54.0656854,16.233581 53.9885196,16.2340496 53.9336797,16.1911314 C53.8788398,16.1482133 53.8607496,16.0731965 53.89,16.01 L54.48,14.71 C54.5070545,14.6560021 54.4990851,14.5910452 54.4597797,14.5451889 C54.4204742,14.4993325 54.3575004,14.4815222 54.3,14.5 L53.62,14.67 C53.5574265,14.6834199 53.4928755,14.6582628 53.4558845,14.6060402 C53.4188934,14.5538175 53.4165789,14.4845763 53.45,14.43 L54.75,12.56 C54.7813614,12.5070784 54.7796049,12.4408632 54.7454819,12.3896787 C54.7113589,12.3384942 54.6509128,12.3114055 54.59,12.32 L53,12.55 C52.9484707,12.5575412 52.8964951,12.5395319 52.8606786,12.5017255 C52.8248621,12.4639192 52.8096864,12.4110468 52.82,12.36 L52.89,11.8 Z" id="Path" fill="#ED5C61" fill-rule="nonzero"></path>
            <path d="M16.25,11.29 C16.3317338,11.2770336 16.3982312,11.2172741 16.419823,11.1373846 C16.4414148,11.0574951 16.4140742,10.972374 16.35,10.92 L11.52,7.17 C10.9758891,6.74857351 10.719707,6.05377653 10.86,5.38 L11.26,3.3 C11.3986667,2.62926105 11.1424297,1.9381976 10.6,1.52 L9.52,0.68 C8.87370508,0.196663808 7.98629492,0.196663808 7.34,0.68 L6.48,1.3 C6.13670815,1.54102158 5.88896065,1.89494658 5.78,2.3 L5.45,3.65 C5.34068809,4.11854611 5.04932607,4.52429048 4.64027934,4.77759923 C4.23123261,5.03090799 3.73816459,5.11093452 3.27,5 L3,4.92 C2.43184265,4.78237568 1.83219638,4.92763161 1.39,5.31 L0.92,5.71 C0.353319397,6.20719134 0.14725225,6.99975729 0.4,7.71 L1.12,9.71 C1.34895751,10.3404819 1.90614933,10.7939207 2.57,10.89 L4.81,11.21 C5.30091404,11.2753023 5.79760111,11.1421326 6.19,10.84 L6.37,10.69 C7.02629555,10.1812836 7.94370445,10.1812836 8.6,10.69 L15.42,16 C15.486809,16.0469777 15.5747952,16.0509593 15.6455742,16.0102078 C15.7163532,15.9694562 15.7570849,15.8913644 15.75,15.81 L15.68,15.13 C15.6695634,14.9876115 15.6322383,14.8484905 15.57,14.72 L14.87,13.23 C14.8306199,13.1560208 14.8415406,13.0653347 14.8973578,13.0028195 C14.953175,12.9403042 15.0420494,12.9192197 15.12,12.95 L16.22,13.31 C16.3032362,13.3350113 16.393279,13.3061638 16.4464847,13.2374398 C16.4996904,13.1687157 16.5050636,13.0743176 16.46,13 L15.68,11.69 C15.6464604,11.6301349 15.6442847,11.5576594 15.674173,11.4958902 C15.7040614,11.434121 15.762243,11.3908507 15.83,11.38 L16.25,11.29 Z" id="Path" fill="#ED5C61" fill-rule="nonzero"></path>
            <path d="M51.51,43 C51.3664095,43.0089933 51.2429492,43.1049405 51.1987802,43.2418646 C51.1546111,43.3787887 51.1987318,43.5287942 51.31,43.62 L58.19,49 C58.7341559,49.4172743 58.9939533,50.1074824 58.86,50.78 L58.45,52.87 C58.3208889,53.5421129 58.5797514,54.2298371 59.12,54.65 L60.19,55.49 C60.8394414,55.9750064 61.7305586,55.9750064 62.38,55.49 L63.24,54.87 C63.5803235,54.6260288 63.8272518,54.273274 63.94,53.87 L64.26,52.53 C64.5014168,51.5608683 65.4787286,50.9673411 66.45,51.2 L66.73,51.26 C67.2981573,51.3976243 67.8978036,51.2523684 68.34,50.87 L68.8,50.46 C69.3768697,49.9691441 69.5847323,49.1696724 69.32,48.46 L68.61,46.46 C68.3791914,45.8308364 67.822936,45.3781596 67.16,45.28 L64.92,45 C64.4290129,44.9335636 63.9318948,45.0668489 63.54,45.37 L63.36,45.52 C62.7005394,46.0303483 61.7794606,46.0303483 61.12,45.52 L53.27,39.4 C53.1536701,39.3149545 52.9971054,39.3098998 52.875532,39.3872646 C52.7539587,39.4646295 52.6922279,39.6085995 52.72,39.75 L52.72,39.84 C52.740608,39.9303537 52.7234408,40.0252042 52.6724709,40.1026028 C52.6215011,40.1800015 52.541146,40.2332404 52.45,40.25 L51.92,40.36 C51.8037493,40.3811552 51.7068183,40.461149 51.6639917,40.5712745 C51.6211651,40.6814001 51.6385849,40.8058636 51.71,40.9 L52.36,41.78 C52.4112538,41.8490694 52.4360855,41.9342066 52.43,42.02 L52.35,42.71 C52.3291111,42.8844123 52.1752557,43.0118924 52,43 L51.51,43 Z" id="Path" fill="#ED5C61" fill-rule="nonzero"></path>
            <path d="M52.07,29.27 L49.34,27.61 L49.83,27.46 C51.2059064,27.0340518 52.142946,25.7603269 52.14,24.32 L52.14,15.48 C52.14,7.06318041 45.3168196,0.24 36.9,0.24 L32.81,0.24 C24.3931804,0.24 17.57,7.06318041 17.57,15.48 L17.57,24.32 C17.5682012,25.7576996 18.505651,27.0279238 19.88,27.45 L20.38,27.61 L17.65,29.27 C15.5639043,30.5280263 14.7346833,33.1382902 15.7123007,35.3695879 C16.6899181,37.6008856 19.1709915,38.7607821 21.51,38.08 L23.28,37.57 L23.28,37.57 L23.28,38.28 C23.28,38.8953023 23.5244279,39.4854033 23.9595123,39.9204877 C24.3945967,40.3555721 24.9846977,40.6 25.6,40.6 L25.6,40.6 C26.8813006,40.6 27.92,39.5613006 27.92,38.28 C27.9173403,38.8943809 28.15954,39.4845107 28.5930376,39.919885 C29.0265353,40.3552592 29.6156134,40.6000058 30.23,40.6 L30.23,40.6 C30.8443866,40.6000058 31.4334647,40.3552592 31.8669624,39.919885 C32.30046,39.4845107 32.5426597,38.8943809 32.54,38.28 C32.4832242,39.1433841 32.9116244,39.9666215 33.6513038,40.4155426 C34.3909832,40.8644636 35.3190168,40.8644636 36.0586962,40.4155426 C36.7983756,39.9666215 37.2267758,39.1433841 37.17,38.28 C37.1132242,39.1433841 37.5416244,39.9666215 38.2813038,40.4155426 C39.0209832,40.8644636 39.9490168,40.8644636 40.6886962,40.4155426 C41.4283756,39.9666215 41.8567758,39.1433841 41.8,38.28 C41.7999881,39.5574055 42.8326064,40.5944939 44.11,40.6 L44.11,40.6 C45.3913006,40.6 46.43,39.5613006 46.43,38.28 L46.43,37.57 L46.43,37.57 L48.2,38.08 L48.2,38.08 C50.52984,38.73022 52.9832196,37.5681062 53.9560447,35.3534839 C54.9288697,33.1388615 54.1249872,30.5459186 52.07,29.27 L52.07,29.27 Z M26.07,26.72 C24.1595543,26.3254249 22.5699422,25.0075435 21.8281964,23.203297 C21.0864506,21.3990506 21.289491,19.3441898 22.37,17.72 C23.0928349,16.6831266 24.4798223,16.3557631 25.59,16.96 L31.54,20.14 C32.661875,20.7303641 33.1578963,22.0717783 32.69,23.25 C31.5931693,25.8221608 28.8414085,27.2711152 26.1,26.72 L26.07,26.72 Z M36.07,31 L33.57,31 C33.1145821,30.9957978 32.6987629,30.740292 32.4892396,30.3359121 C32.2797164,29.9315322 32.3107887,29.4444764 32.57,29.07 L33.85,27.24 C34.0796295,26.9151529 34.4521893,26.7214218 34.85,26.72 C35.2486409,26.7180207 35.622678,26.91252 35.85,27.24 L37.14,29.07 C37.3992113,29.4444764 37.4302836,29.9315322 37.2207604,30.3359121 C37.0112371,30.740292 36.5954179,30.9957978 36.14,31 L36.07,31 Z M48.15,22 C47.6319062,24.5052486 45.5558824,26.3896031 43.0123113,26.6633506 C40.4687402,26.9370982 38.0393012,25.5376366 37,23.2 C36.5336635,22.0192344 37.0343194,20.6769586 38.16,20.09 L44.16,16.91 C45.2701777,16.3057631 46.6571651,16.6331266 47.38,17.67 C48.2152366,18.9480425 48.5167659,20.5023542 48.22,22 L48.15,22 Z" id="Shape" fill="#FDAD6F" fill-rule="nonzero"></path>
            <path d="M46.16,36.2 L46.16,38.2 C46.16,38.6583963 45.7883963,39.03 45.33,39.03 L45.33,39.03 C44.8755137,39.0245239 44.509967,38.6545193 44.51,38.2 L44.51,36 C44.5044886,34.1261383 42.9838698,32.6099919 41.11,32.61 L28.5,32.61 C26.6277547,32.61 25.11,34.1277547 25.11,36 L25.11,38.29 C25.11,38.7483963 24.7383963,39.12 24.28,39.12 L24.28,39.12 C23.8255137,39.1145239 23.459967,38.7445193 23.46,38.29 L23.46,36.12 C23.460735,33.7776351 22.89826,31.4694301 21.82,29.39 L21.62,29.02 C21.3665028,28.5519118 20.826947,28.3164369 20.3113638,28.4488804 C19.7957805,28.5813238 19.4365138,29.0476888 19.44,29.58 L19.62,39.07 L19.62,46.74 C19.6173277,47.377335 19.8693259,47.9893383 20.3199938,48.4400062 C20.7706617,48.8906741 21.382665,49.1426723 22.02,49.14 L22.02,49.14 C23.0511124,49.1410582 23.9531775,49.8340082 24.22,50.83 L25.38,55.17 C25.7518749,56.4795505 26.9588935,57.3745508 28.32,57.35 C29.4704487,57.3524568 30.4755958,58.127856 30.77,59.24 L32.52,65.78 C32.7584834,66.730952 33.5492677,67.4426579 34.52,67.58 C35.6704255,67.698705 36.7373724,66.9662375 37.04,65.85 L38.81,59.24 C39.1044042,58.127856 40.1095513,57.3524568 41.26,57.35 L41.26,57.35 C42.6619648,57.3700017 43.8981607,56.4346135 44.26,55.08 L45.41,50.78 C45.6925427,49.8018063 46.5918548,49.13141 47.61,49.14 C48.9315765,49.1344934 50.0000115,48.061588 50,46.74 L50,44.09 L50.27,29.47 C50.283784,28.9346783 49.9262525,28.460689 49.4077408,28.3268795 C48.8892291,28.1930701 48.3469808,28.4348581 48.1,28.91 L47.87,29.34 C46.7485145,31.4527769 46.1614196,33.808023 46.16,36.2 Z" id="Path" fill="#FDAD6F" fill-rule="nonzero"></path>
            <path d="M18.21,43 C18.3535905,43.0089933 18.4770508,43.1049405 18.5212198,43.2418646 C18.5653889,43.3787887 18.5212682,43.5287942 18.41,43.62 L11.52,49 C10.9775703,49.4181976 10.7213333,50.109261 10.86,50.78 L11.26,52.87 C11.3986667,53.540739 11.1424297,54.2318024 10.6,54.65 L9.52,55.49 C8.87370508,55.9733362 7.98629492,55.9733362 7.34,55.49 L6.48,54.87 C6.13670815,54.6289784 5.88896065,54.2750534 5.78,53.87 L5.45,52.53 C5.21322511,51.5622405 4.23886532,50.9677917 3.27,51.2 L3,51.25 C2.43184265,51.3876243 1.83219638,51.2423684 1.39,50.86 L0.92,50.45 C0.348297179,49.9559181 0.141351537,49.1599733 0.4,48.45 L1.12,46.45 C1.34895751,45.8195181 1.90614933,45.3660793 2.57,45.27 L4.8,45 C5.29091404,44.9346977 5.78760111,45.0678674 6.18,45.37 L6.36,45.52 C7.01629555,46.0287164 7.93370445,46.0287164 8.59,45.52 L16.45,39.41 C16.5663299,39.3249545 16.7228946,39.3198998 16.844468,39.3972646 C16.9660413,39.4746295 17.0277721,39.6185995 17,39.76 L17,39.85 C16.9623912,40.0343327 17.0772277,40.2154212 17.26,40.26 L17.8,40.37 C17.9162507,40.3911552 18.0131817,40.471149 18.0560083,40.5812745 C18.0988349,40.6914001 18.0814151,40.8158636 18.01,40.91 L17.36,41.79 C17.304013,41.8566278 17.2786108,41.9437208 17.29,42.03 L17.37,42.72 C17.3851577,42.8866786 17.522691,43.0156161 17.69,43.02 L18.21,43 Z" id="Path" fill="#ED5C61" fill-rule="nonzero"></path>
            <path d="M47.89,29.34 C46.760805,31.4502539 46.1699952,33.8066231 46.17,36.2 L46.17,38.2 C46.170033,38.6545193 45.8044863,39.0245239 45.35,39.03 L45.35,39.03 C44.8916037,39.03 44.52,38.6583963 44.52,38.2 L44.52,36 C44.52,35.1009161 44.1628403,34.2386563 43.527092,33.602908 C42.8913437,32.9671597 42.0290839,32.61 41.13,32.61 L28.52,32.61 C26.6477547,32.61 25.13,34.1277547 25.13,36 L25.13,38.29 C25.13,38.7483963 24.7583963,39.12 24.3,39.12 L24.3,39.12 C23.8416037,39.12 23.47,38.7483963 23.47,38.29 L23.47,36.12 C23.470735,33.7776351 22.90826,31.4694301 21.83,29.39" id="Path" stroke="#133153" stroke-linecap="round"></path>
            <path d="M28.11,36.91 L41.61,36.91" id="Path" stroke="#133153" stroke-linecap="round"></path>
            <path d="M30.34,35.5 L30.34,38.32" id="Path" stroke="#133153" stroke-linecap="round"></path>
            <path d="M33.35,35.5 L33.35,38.32" id="Path" stroke="#133153" stroke-linecap="round"></path>
            <path d="M36.37,35.5 L36.37,38.32" id="Path" stroke="#133153" stroke-linecap="round"></path>
            <path d="M39.38,35.5 L39.38,38.32" id="Path" stroke="#133153" stroke-linecap="round"></path>
            <path d="M27.6,42.69 L27.6,51.72" id="Path" stroke="#133153" stroke-linecap="round"></path>
            <path d="M32.8,50.48 L32.8,59.51" id="Path" stroke="#133153" stroke-linecap="round"></path>
            <path d="M36.97,42.16 L36.97,51.19" id="Path" stroke="#133153" stroke-linecap="round"></path>
            <path d="M41.61,44.73 L41.61,53.76" id="Path" stroke="#133153" stroke-linecap="round"></path>
            <path d="M22.32,41.94 L22.32,45.57" id="Path" stroke="#133153" stroke-linecap="round"></path>
            <path d="M46.87,41.41 L46.87,45.03" id="Path" stroke="#133153" stroke-linecap="round"></path>
        </g>
    </g>
</svg>